<svg xmlns="http://www.w3.org/2000/svg" width="24" height="24" fill="none" viewBox="0 0 24 24"><path fill="currentColor" d="M4.875 12.393h.5zm0 5.64h-.5zm13.154 1.092v-.5zm-12.058 0v.5zm13.154-6.732h-.5zm0 5.64h.5zm-.58-7.12-.367.34zm-4.933-5.334-.367.34zm-3.224 0 .367.34zm-4.933 5.334-.367-.34zm4.353 2.752h.5zm0 4.914h-.5zm3.836.546v-.5zm-3.288 0v.5zm3.836-5.46h.5zm0 4.914h-.5zm-.548-5.46v.5zm-3.288 0v.5zm-5.981-.726v5.64h1v-5.64zm13.654 6.232H5.97v1H18.03zm.596-6.232v5.64h1v-5.64zm.287-1.82L13.979 5.24l-.734.679 4.933 5.333zM10.021 5.24l-4.933 5.333.734.68 4.933-5.334zm3.958 0a2.7 2.7 0 0 0-3.958 0l.734.679a1.7 1.7 0 0 1 2.49 0zm5.646 7.153a2.68 2.68 0 0 0-.713-1.82l-.734.68c.288.31.447.717.447 1.14zm-14.25 0c0-.423.16-.83.447-1.14l-.734-.68a2.68 2.68 0 0 0-.713 1.82zm-1 5.64c0 .881.716 1.592 1.596 1.592v-1a.594.594 0 0 1-.596-.592zm13.654 1.592c.88 0 1.596-.711 1.596-1.592h-1a.594.594 0 0 1-.596.592zm-8.721-5.96v4.914h1v-4.914zm4.336 4.96h-3.288v1h3.288zm.048-4.96v4.914h1v-4.914zm-.048-1.046h-3.288v1h3.288zm1.048 1.046c0-.58-.47-1.046-1.048-1.046v1c.028 0 .048.022.048.046zm-4.384 0c0-.024.02-.046.048-.046v-1c-.577 0-1.048.466-1.048 1.046zm-1 4.914c0 .58.47 1.046 1.048 1.046v-1a.047.047 0 0 1-.048-.046zm4.336 1.046c.577 0 1.048-.467 1.048-1.046h-1c0 .024-.02.046-.048.046z"/></svg>